<svg width="1678" height="1024" viewBox="0 0 1678 1024" fill="none" xmlns="http://www.w3.org/2000/svg">
<path fill-rule="evenodd" clip-rule="evenodd" d="M1678 0H0V1024H1678V0ZM411.5 234.166C323 260.166 278.452 291.987 245.366 448.914C184.356 471.76 76.7677 549.75 134.492 678.947C192.217 808.144 315.762 800.528 370.319 780.571C380.879 832.04 437.019 945.375 577.108 986.971C717.196 1028.57 830.535 954.627 854 924.166C909.73 967.756 1058.5 1035.67 1237.07 968.851C1439.69 893.038 1432.13 719.649 1406.02 649.799C1461.46 647.173 1572.86 606.471 1574.97 464.67C1577.08 322.868 1463.22 311.577 1406.02 323.656C1382.85 283.479 1313.1 199.502 1219.47 185.006C1125.84 170.511 1051.99 178.967 1026.76 185.006C1007.11 121.196 887.98 14.5937 700 24.6655C497.754 35.5016 424 177.666 411.5 234.166Z" fill="black"/>
</svg>
