<svg width="1625" height="1024" viewBox="0 0 1625 1024" fill="none" xmlns="http://www.w3.org/2000/svg">
<path fill-rule="evenodd" clip-rule="evenodd" d="M894.5 0H331L0 464.5V1024H839H1286.25L1509 869L1625 553L1581 241L1286.25 0H894.5ZM411.5 234.166C323 260.166 278.452 291.987 245.366 448.914C184.356 471.76 76.7677 549.75 134.492 678.947C192.217 808.144 315.762 800.528 370.319 780.571C380.879 832.04 437.019 945.375 577.108 986.971C717.196 1028.57 830.535 954.627 854 924.166C909.73 967.756 1058.5 1035.67 1237.07 968.851C1439.69 893.038 1432.13 719.649 1406.02 649.799C1461.46 647.173 1572.86 606.471 1574.97 464.67C1577.08 322.868 1463.22 311.577 1406.02 323.656C1382.85 283.479 1313.1 199.502 1219.47 185.006C1125.84 170.511 1051.99 178.967 1026.76 185.006C1007.11 121.196 887.98 14.5937 700 24.6655C497.754 35.5016 424 177.666 411.5 234.166Z" fill="black"/>
<path d="M353 890.166C353 922.231 327.896 948.166 297 948.166C266.104 948.166 241 922.231 241 890.166C241 858.1 266.104 832.166 297 832.166C327.896 832.166 353 858.1 353 890.166Z" stroke="white" stroke-width="2"/>
<path d="M141 994.666C141 1006.56 131.577 1016.17 120 1016.17C108.423 1016.17 99 1006.56 99 994.666C99 982.77 108.423 973.166 120 973.166C131.577 973.166 141 982.77 141 994.666Z" stroke="white" stroke-width="2"/>
<path d="M230 958.666C230 978.246 213.684 994.166 193.5 994.166C173.316 994.166 157 978.246 157 958.666C157 939.085 173.316 923.166 193.5 923.166C213.684 923.166 230 939.085 230 958.666Z" stroke="white" stroke-width="2"/>
<path d="M245.366 447.914C278.452 290.987 323 259.166 411.5 233.166C424 176.666 497.754 34.5016 700 23.6655C887.98 13.5937 1007.11 120.196 1026.76 184.006C1051.99 177.967 1125.84 169.511 1219.47 184.006C1313.1 198.502 1382.85 282.479 1406.02 322.656C1463.22 310.577 1577.08 321.868 1574.97 463.67C1572.86 605.471 1461.46 646.173 1406.02 648.799C1432.13 718.649 1439.69 892.038 1237.07 967.851C1058.5 1034.67 909.73 966.756 854 923.166C830.535 953.627 717.196 1027.57 577.108 985.971C437.019 944.375 380.879 831.04 370.319 779.571C315.762 799.528 192.217 807.144 134.492 677.947C76.7677 548.75 184.356 470.76 245.366 447.914Z" stroke="white" stroke-width="2"/>
</svg>
