<svg width="72" height="50" viewBox="0 0 72 50" fill="none" xmlns="http://www.w3.org/2000/svg">
<circle cx="2" cy="48" r="1" fill="white" stroke="white" stroke-width="2"/>
<path d="M11 45C11 45.9655 10.0309 47 8.5 47C6.96911 47 6 45.9655 6 45C6 44.0345 6.96911 43 8.5 43C10.0309 43 11 44.0345 11 45Z" fill="white" stroke="white" stroke-width="2"/>
<path d="M9.85692 20.6041C11.3784 13.364 13.4269 11.8959 17.4966 10.6963C18.0714 8.08962 21.463 1.53065 30.7632 1.0307C39.4075 0.566025 44.8856 5.48429 45.7893 8.4283C46.9493 8.14965 50.3456 7.75953 54.651 8.4283C58.9565 9.09706 62.1639 12.9715 63.2295 14.8251C65.8597 14.2678 71.0958 14.7888 70.9987 21.331C70.9016 27.8733 65.7788 29.7511 63.2295 29.8723C64.4299 33.0949 64.7779 41.0945 55.4603 44.5923C47.2488 47.6749 40.4076 44.5418 37.8449 42.5306C36.7658 43.936 31.554 47.3473 25.112 45.4283C18.6701 43.5092 16.0884 38.2803 15.6029 35.9057C13.0941 36.8264 7.41287 37.1778 4.7584 31.2171C2.10394 25.2564 7.05139 21.6581 9.85692 20.6041Z" fill="white" stroke="white" stroke-width="2"/>
</svg>
